<svg id="vector" xmlns="http://www.w3.org/2000/svg" width="1024" height="1024" viewBox="0 0 67.733 67.733"><defs><radialGradient gradientUnits="userSpaceOnUse" cx="67.803" cy="48.855" r="21.903" id="gradient_0"><stop stop-color="#00B4B4" offset="0"/><stop stop-color="#008A8A" offset="0.668"/></radialGradient><radialGradient gradientUnits="userSpaceOnUse" cx="79.255" cy="47.877" r="21.27" id="gradient_1"><stop stop-color="#00B4B4" offset="0"/><stop stop-color="#008A8A" offset="0.668"/></radialGradient><radialGradient gradientUnits="userSpaceOnUse" cx="33.803" cy="35.142" r="22.012" id="gradient_2"><stop stop-color="#00B4B4" offset="0"/><stop stop-color="#008A8A" offset="0.668"/></radialGradient><radialGradient gradientUnits="userSpaceOnUse" cx="33.522" cy="35.106" r="22.012" id="gradient_3"><stop stop-color="#00B4B4" offset="0"/><stop stop-color="#008A8A" offset="0.668"/></radialGradient></defs><path fill="url(#gradient_0)" d="M53.081,42.019a15.926,5.104 71.302,1 1,-9.158 4.746a15.926,5.104 71.302,1 1,9.158 -4.746z" stroke="#000000" stroke-opacity="0" stroke-width="0.144986" fill-rule="nonzero" id="path_0"/><path fill="url(#gradient_1)" d="M14.065,41.946a15.152,4.973 109.359,1 0,8.952 4.5a15.152,4.973 109.359,1 0,-8.952 -4.5z" stroke="#000000" stroke-opacity="0" stroke-width="0.139377" fill-rule="nonzero" id="path_1"/><path fill="url(#gradient_2)" d="M38.208,26.921L29.344,26.949A10.832,11.084 89.807,0 0,18.295 37.817L18.34,51.771A10.832,11.084 89.807,0 0,29.459 62.567L38.323,62.538A10.832,11.084 89.807,0 0,49.372 51.67L49.326,37.717A10.832,11.084 89.807,0 0,38.208 26.921z" stroke="#000000" stroke-opacity="0" stroke-width="0.180715" fill-rule="nonzero" id="path_2"/><path fill="url(#gradient_3)" d="M44.799,18.943a11.72,11.029 90,1 1,-22.059 0a11.72,11.029 90,1 1,22.059 0z" stroke="#000000" stroke-opacity="0" stroke-width="0.292" fill-rule="nonzero" id="path_3"/></svg>